<svg xmlns="http://www.w3.org/2000/svg" width="640" height="400" viewBox="0 0 640 400">
  <defs>
    <linearGradient id="gw2" x1="0" y1="0" x2="1" y2="1">
      <stop offset="0%" stop-color="#03181f"/>
      <stop offset="60%" stop-color="#00b8a9"/>
      <stop offset="100%" stop-color="#7cffcb" stop-opacity="0.85"/>
    </linearGradient>
    <radialGradient id="rw2" cx="50%" cy="40%" r="70%">
      <stop offset="0%" stop-color="#ffffff" stop-opacity="0.16"/>
      <stop offset="100%" stop-color="#ffffff" stop-opacity="0"/>
    </radialGradient>
  </defs>
  <rect width="640" height="400" fill="url(#gw2)"/>
  <rect width="640" height="400" fill="url(#rw2)"/>
  <line x1="0" y1="0" x2="0" y2="400" stroke="#fff" stroke-width="0.5" opacity="0.06"/>
  <line x1="40" y1="0" x2="16" y2="400" stroke="#fff" stroke-width="0.5" opacity="0.06"/>
  <line x1="80" y1="0" x2="32" y2="400" stroke="#fff" stroke-width="0.5" opacity="0.06"/>
  <line x1="120" y1="0" x2="48" y2="400" stroke="#fff" stroke-width="0.5" opacity="0.06"/>
  <line x1="160" y1="0" x2="64" y2="400" stroke="#fff" stroke-width="0.5" opacity="0.06"/>
  <line x1="200" y1="0" x2="80" y2="400" stroke="#fff" stroke-width="0.5" opacity="0.06"/>
  <line x1="240" y1="0" x2="96" y2="400" stroke="#fff" stroke-width="0.5" opacity="0.06"/>
  <line x1="280" y1="0" x2="112" y2="400" stroke="#fff" stroke-width="0.5" opacity="0.06"/>
  <line x1="320" y1="0" x2="128" y2="400" stroke="#fff" stroke-width="0.5" opacity="0.06"/>
  <line x1="360" y1="0" x2="144" y2="400" stroke="#fff" stroke-width="0.5" opacity="0.06"/>
  <line x1="400" y1="0" x2="160" y2="400" stroke="#fff" stroke-width="0.5" opacity="0.06"/>
  <line x1="440" y1="0" x2="176" y2="400" stroke="#fff" stroke-width="0.5" opacity="0.06"/>
  <line x1="480" y1="0" x2="192" y2="400" stroke="#fff" stroke-width="0.5" opacity="0.06"/>
  <line x1="520" y1="0" x2="208" y2="400" stroke="#fff" stroke-width="0.5" opacity="0.06"/>
  <line x1="560" y1="0" x2="224" y2="400" stroke="#fff" stroke-width="0.5" opacity="0.06"/>
  <line x1="600" y1="0" x2="240" y2="400" stroke="#fff" stroke-width="0.5" opacity="0.06"/>
  <line x1="640" y1="0" x2="256" y2="400" stroke="#fff" stroke-width="0.5" opacity="0.06"/>
  <line x1="0" y1="0" x2="640" y2="0" stroke="#fff" stroke-width="0.5" opacity="0.06"/>
  <line x1="0" y1="40" x2="640" y2="20" stroke="#fff" stroke-width="0.5" opacity="0.06"/>
  <line x1="0" y1="80" x2="640" y2="40" stroke="#fff" stroke-width="0.5" opacity="0.06"/>
  <line x1="0" y1="120" x2="640" y2="60" stroke="#fff" stroke-width="0.5" opacity="0.06"/>
  <line x1="0" y1="160" x2="640" y2="80" stroke="#fff" stroke-width="0.5" opacity="0.06"/>
  <line x1="0" y1="200" x2="640" y2="100" stroke="#fff" stroke-width="0.5" opacity="0.06"/>
  <line x1="0" y1="240" x2="640" y2="120" stroke="#fff" stroke-width="0.5" opacity="0.06"/>
  <line x1="0" y1="280" x2="640" y2="140" stroke="#fff" stroke-width="0.5" opacity="0.06"/>
  <line x1="0" y1="320" x2="640" y2="160" stroke="#fff" stroke-width="0.5" opacity="0.06"/>
  <line x1="0" y1="360" x2="640" y2="180" stroke="#fff" stroke-width="0.5" opacity="0.06"/>
  <line x1="0" y1="400" x2="640" y2="200" stroke="#fff" stroke-width="0.5" opacity="0.06"/>
  <circle cx="432" cy="253" r="76" fill="none" stroke="#7cffcb" stroke-width="1.2" opacity="0.35"/>
  <circle cx="242" cy="214" r="95" fill="none" stroke="#7cffcb" stroke-width="1.2" opacity="0.35"/>
  <circle cx="476" cy="87" r="75" fill="none" stroke="#7cffcb" stroke-width="1.2" opacity="0.35"/>
  <circle cx="269" cy="378" r="10" fill="#00b8a9" opacity="0.10"/>
  <circle cx="200" cy="396" r="15" fill="#7cffcb" opacity="0.14"/>
  <circle cx="244" cy="111" r="24" fill="#00b8a9" opacity="0.07"/>
  <circle cx="468" cy="288" r="24" fill="#7cffcb" opacity="0.11"/>
  <circle cx="93" cy="316" r="29" fill="#00b8a9" opacity="0.13"/>
  <circle cx="614" cy="160" r="33" fill="#7cffcb" opacity="0.20"/>
  <circle cx="126" cy="347" r="61" fill="#00b8a9" opacity="0.13"/>
  <circle cx="169" cy="157" r="6" fill="#7cffcb" opacity="0.08"/>
  <circle cx="434" cy="309" r="67" fill="#00b8a9" opacity="0.10"/>
  <circle cx="407" cy="108" r="35" fill="#7cffcb" opacity="0.06"/>
  <circle cx="260" cy="353" r="70" fill="#00b8a9" opacity="0.08"/>
  <circle cx="532" cy="175" r="50" fill="#7cffcb" opacity="0.05"/>
  <circle cx="288" cy="89" r="8" fill="#00b8a9" opacity="0.13"/>
  <circle cx="634" cy="41" r="75" fill="#7cffcb" opacity="0.08"/>
  <circle cx="179" cy="132" r="60" fill="#00b8a9" opacity="0.10"/>
  <circle cx="516" cy="204" r="26" fill="#7cffcb" opacity="0.08"/>
  <circle cx="298" cy="162" r="23" fill="#00b8a9" opacity="0.09"/>
  <circle cx="166" cy="214" r="62" fill="#7cffcb" opacity="0.16"/>
  <circle cx="605" cy="320" r="45" fill="#00b8a9" opacity="0.13"/>
  <circle cx="592" cy="221" r="64" fill="#7cffcb" opacity="0.10"/>
  <circle cx="551" cy="326" r="11" fill="#00b8a9" opacity="0.11"/>
  <circle cx="528" cy="257" r="5" fill="#7cffcb" opacity="0.15"/>
  <circle cx="604" cy="313" r="50" fill="#00b8a9" opacity="0.17"/>
  <circle cx="549" cy="41" r="74" fill="#7cffcb" opacity="0.11"/>
  <circle cx="302" cy="202" r="5" fill="#00b8a9" opacity="0.17"/>
  <circle cx="501" cy="103" r="18" fill="#7cffcb" opacity="0.14"/>
  <g transform="translate(490, 46)" opacity="0.9">
    <polygon points="0,26 22,0 44,26" fill="none" stroke="#fff" stroke-width="1.4" opacity="0.85"/>
    <polygon points="0,58 22,32 44,58" fill="none" stroke="#fff" stroke-width="1.4" opacity="0.5"/>
    <circle cx="22" cy="16" r="4" fill="#fff" opacity="0.9"/>
  </g>
  <text x="34" y="326" font-family="Arial, Helvetica, sans-serif" font-size="15" letter-spacing="4" fill="#ffffff" opacity="0.65">WEB DESIGN</text>
  <text x="32" y="366" font-family="Arial, Helvetica, sans-serif" font-weight="bold" font-size="26" fill="#ffffff">Vue3 Portfolio</text>
</svg>