<svg xmlns="http://www.w3.org/2000/svg" width="640" height="400" viewBox="0 0 640 400">
  <defs>
    <linearGradient id="gw6" x1="0" y1="0" x2="1" y2="1">
      <stop offset="0%" stop-color="#052a2a"/>
      <stop offset="60%" stop-color="#00d1c1"/>
      <stop offset="100%" stop-color="#b9fbc0" stop-opacity="0.85"/>
    </linearGradient>
    <radialGradient id="rw6" cx="50%" cy="40%" r="70%">
      <stop offset="0%" stop-color="#ffffff" stop-opacity="0.16"/>
      <stop offset="100%" stop-color="#ffffff" stop-opacity="0"/>
    </radialGradient>
  </defs>
  <rect width="640" height="400" fill="url(#gw6)"/>
  <rect width="640" height="400" fill="url(#rw6)"/>
  <line x1="0" y1="0" x2="0" y2="400" stroke="#fff" stroke-width="0.5" opacity="0.06"/>
  <line x1="40" y1="0" x2="16" y2="400" stroke="#fff" stroke-width="0.5" opacity="0.06"/>
  <line x1="80" y1="0" x2="32" y2="400" stroke="#fff" stroke-width="0.5" opacity="0.06"/>
  <line x1="120" y1="0" x2="48" y2="400" stroke="#fff" stroke-width="0.5" opacity="0.06"/>
  <line x1="160" y1="0" x2="64" y2="400" stroke="#fff" stroke-width="0.5" opacity="0.06"/>
  <line x1="200" y1="0" x2="80" y2="400" stroke="#fff" stroke-width="0.5" opacity="0.06"/>
  <line x1="240" y1="0" x2="96" y2="400" stroke="#fff" stroke-width="0.5" opacity="0.06"/>
  <line x1="280" y1="0" x2="112" y2="400" stroke="#fff" stroke-width="0.5" opacity="0.06"/>
  <line x1="320" y1="0" x2="128" y2="400" stroke="#fff" stroke-width="0.5" opacity="0.06"/>
  <line x1="360" y1="0" x2="144" y2="400" stroke="#fff" stroke-width="0.5" opacity="0.06"/>
  <line x1="400" y1="0" x2="160" y2="400" stroke="#fff" stroke-width="0.5" opacity="0.06"/>
  <line x1="440" y1="0" x2="176" y2="400" stroke="#fff" stroke-width="0.5" opacity="0.06"/>
  <line x1="480" y1="0" x2="192" y2="400" stroke="#fff" stroke-width="0.5" opacity="0.06"/>
  <line x1="520" y1="0" x2="208" y2="400" stroke="#fff" stroke-width="0.5" opacity="0.06"/>
  <line x1="560" y1="0" x2="224" y2="400" stroke="#fff" stroke-width="0.5" opacity="0.06"/>
  <line x1="600" y1="0" x2="240" y2="400" stroke="#fff" stroke-width="0.5" opacity="0.06"/>
  <line x1="640" y1="0" x2="256" y2="400" stroke="#fff" stroke-width="0.5" opacity="0.06"/>
  <line x1="0" y1="0" x2="640" y2="0" stroke="#fff" stroke-width="0.5" opacity="0.06"/>
  <line x1="0" y1="40" x2="640" y2="20" stroke="#fff" stroke-width="0.5" opacity="0.06"/>
  <line x1="0" y1="80" x2="640" y2="40" stroke="#fff" stroke-width="0.5" opacity="0.06"/>
  <line x1="0" y1="120" x2="640" y2="60" stroke="#fff" stroke-width="0.5" opacity="0.06"/>
  <line x1="0" y1="160" x2="640" y2="80" stroke="#fff" stroke-width="0.5" opacity="0.06"/>
  <line x1="0" y1="200" x2="640" y2="100" stroke="#fff" stroke-width="0.5" opacity="0.06"/>
  <line x1="0" y1="240" x2="640" y2="120" stroke="#fff" stroke-width="0.5" opacity="0.06"/>
  <line x1="0" y1="280" x2="640" y2="140" stroke="#fff" stroke-width="0.5" opacity="0.06"/>
  <line x1="0" y1="320" x2="640" y2="160" stroke="#fff" stroke-width="0.5" opacity="0.06"/>
  <line x1="0" y1="360" x2="640" y2="180" stroke="#fff" stroke-width="0.5" opacity="0.06"/>
  <line x1="0" y1="400" x2="640" y2="200" stroke="#fff" stroke-width="0.5" opacity="0.06"/>
  <circle cx="225" cy="112" r="74" fill="none" stroke="#b9fbc0" stroke-width="1.2" opacity="0.35"/>
  <circle cx="202" cy="121" r="110" fill="none" stroke="#b9fbc0" stroke-width="1.2" opacity="0.35"/>
  <circle cx="401" cy="85" r="97" fill="none" stroke="#b9fbc0" stroke-width="1.2" opacity="0.35"/>
  <circle cx="501" cy="273" r="22" fill="#00d1c1" opacity="0.20"/>
  <circle cx="194" cy="286" r="68" fill="#b9fbc0" opacity="0.15"/>
  <circle cx="391" cy="37" r="83" fill="#00d1c1" opacity="0.05"/>
  <circle cx="345" cy="253" r="13" fill="#b9fbc0" opacity="0.20"/>
  <circle cx="132" cy="394" r="73" fill="#00d1c1" opacity="0.09"/>
  <circle cx="134" cy="33" r="56" fill="#b9fbc0" opacity="0.12"/>
  <circle cx="617" cy="106" r="66" fill="#00d1c1" opacity="0.17"/>
  <circle cx="469" cy="298" r="56" fill="#b9fbc0" opacity="0.06"/>
  <circle cx="66" cy="145" r="42" fill="#00d1c1" opacity="0.17"/>
  <circle cx="591" cy="345" r="82" fill="#b9fbc0" opacity="0.21"/>
  <circle cx="617" cy="48" r="8" fill="#00d1c1" opacity="0.15"/>
  <circle cx="530" cy="11" r="47" fill="#b9fbc0" opacity="0.08"/>
  <circle cx="555" cy="397" r="43" fill="#00d1c1" opacity="0.16"/>
  <circle cx="75" cy="109" r="47" fill="#b9fbc0" opacity="0.06"/>
  <circle cx="344" cy="221" r="27" fill="#00d1c1" opacity="0.19"/>
  <circle cx="26" cy="204" r="76" fill="#b9fbc0" opacity="0.12"/>
  <circle cx="63" cy="124" r="17" fill="#00d1c1" opacity="0.11"/>
  <circle cx="603" cy="93" r="66" fill="#b9fbc0" opacity="0.07"/>
  <circle cx="389" cy="345" r="66" fill="#00d1c1" opacity="0.11"/>
  <circle cx="221" cy="233" r="9" fill="#b9fbc0" opacity="0.11"/>
  <circle cx="114" cy="127" r="53" fill="#00d1c1" opacity="0.20"/>
  <circle cx="377" cy="274" r="80" fill="#b9fbc0" opacity="0.06"/>
  <circle cx="414" cy="30" r="64" fill="#00d1c1" opacity="0.06"/>
  <circle cx="25" cy="127" r="57" fill="#b9fbc0" opacity="0.19"/>
  <circle cx="524" cy="357" r="77" fill="#00d1c1" opacity="0.09"/>
  <circle cx="545" cy="361" r="13" fill="#b9fbc0" opacity="0.05"/>
  <g transform="translate(490, 46)" opacity="0.9">
    <polygon points="0,26 22,0 44,26" fill="none" stroke="#fff" stroke-width="1.4" opacity="0.85"/>
    <polygon points="0,58 22,32 44,58" fill="none" stroke="#fff" stroke-width="1.4" opacity="0.5"/>
    <circle cx="22" cy="16" r="4" fill="#fff" opacity="0.9"/>
  </g>
  <text x="34" y="326" font-family="Arial, Helvetica, sans-serif" font-size="15" letter-spacing="4" fill="#ffffff" opacity="0.65">PHOTOGRAPHY</text>
  <text x="32" y="366" font-family="Arial, Helvetica, sans-serif" font-weight="bold" font-size="26" fill="#ffffff">City Night</text>
</svg>